<svg width="8" height="16" viewBox="0 0 8 16" fill="none" xmlns="http://www.w3.org/2000/svg">
<path d="M6.33941 14.024C6.33341 14.026 5.78041 14.21 5.30041 14.21C5.03541 14.21 4.92841 14.155 4.89441 14.131C4.72641 14.014 4.41441 13.795 4.94841 12.731L5.94841 10.737C6.54141 9.55299 6.62941 8.40799 6.19341 7.51199C5.83741 6.77899 5.15441 6.27599 4.27341 6.09599C3.95816 6.03147 3.63719 5.99897 3.31541 5.99899C1.46641 5.99899 0.221408 7.07899 0.169408 7.12499C0.0825881 7.20151 0.0249984 7.30577 0.00645887 7.42C-0.0120806 7.53423 0.00957801 7.65136 0.067742 7.75141C0.125906 7.85145 0.216973 7.92823 0.325415 7.96863C0.433856 8.00904 0.552957 8.01058 0.662408 7.97299C0.667408 7.97099 1.22141 7.78599 1.70141 7.78599C1.96441 7.78599 2.07041 7.84099 2.10341 7.86399C2.27241 7.98199 2.58541 8.20399 2.05241 9.26599L1.05241 11.261C0.458408 12.446 0.371408 13.591 0.807408 14.486C1.16341 15.219 1.84541 15.722 2.72841 15.902C3.04241 15.965 3.36441 15.999 3.68241 15.999C5.53241 15.999 6.77841 14.919 6.83041 14.873C6.9173 14.7967 6.97504 14.6925 6.99379 14.5784C7.01254 14.4643 6.99114 14.3472 6.93323 14.247C6.87533 14.1469 6.7845 14.07 6.67622 14.0293C6.56794 13.9886 6.44891 13.9867 6.33941 14.024Z" fill="#2D2C32"/>
<path d="M5.50049 5C6.8812 5 8.00049 3.88071 8.00049 2.5C8.00049 1.11929 6.8812 0 5.50049 0C4.11978 0 3.00049 1.11929 3.00049 2.5C3.00049 3.88071 4.11978 5 5.50049 5Z" fill="#2D2C32"/>
</svg>
