<svg width="102" height="15" viewBox="0 0 102 15" fill="none" xmlns="http://www.w3.org/2000/svg">
<path d="M11 0.299999V1.64H6.46V14.5H5.06V1.64H0.52V0.299999H11ZM11.0772 9.2C11.0772 5.94 12.8572 3.66 15.8172 3.66C18.3572 3.66 20.2572 5.5 20.3772 9.04L20.3972 9.6H12.4972C12.6172 12 13.8372 13.44 15.8172 13.44C17.0972 13.44 18.2372 12.7 18.7372 11.44L20.1972 11.54C19.5772 13.52 17.8372 14.74 15.8172 14.74C12.8572 14.74 11.0772 12.46 11.0772 9.2ZM12.5372 8.4H18.9172C18.6772 6 17.3972 4.96 15.8172 4.96C13.9572 4.96 12.7772 6.24 12.5372 8.4ZM29.9877 7.38C29.6677 5.86 28.4877 4.96 27.0477 4.96C24.9677 4.96 23.7277 6.56 23.7277 9.2C23.7277 11.84 24.9677 13.44 27.0477 13.44C28.5477 13.44 29.7477 12.46 30.0677 10.8L31.5077 10.9C31.1077 13.24 29.3477 14.74 27.0477 14.74C24.0877 14.74 22.3077 12.46 22.3077 9.2C22.3077 5.94 24.0877 3.66 27.0477 3.66C29.2677 3.66 31.0477 5.06 31.4077 7.3L29.9877 7.38Z" fill="#EFEFF5"/>
<path d="M33.8656 0.299999H37.4056L41.2856 11.28L45.1856 0.299999H48.7256V14.5H46.0856V4.8L42.5656 14.48H40.0256L36.4856 4.8V14.5H33.8656V0.299999ZM50.84 9.2C50.84 5.84 52.92 3.66 56.08 3.66C58.8 3.66 61.02 5.5 61.06 9.26L61.08 9.9H53.54C53.66 11.66 54.58 12.7 56.08 12.7C57.04 12.7 57.9 12.16 58.28 11.24L60.92 11.44C60.3 13.48 58.38 14.74 56.08 14.74C52.92 14.74 50.84 12.56 50.84 9.2ZM53.58 8.18H58.4C58.2 6.38 57.2 5.7 56.08 5.7C54.68 5.7 53.78 6.64 53.58 8.18ZM63.1578 3.9H65.4978L65.5578 5.62C66.1378 4.22 67.3378 3.66 68.7578 3.66C71.0978 3.66 72.3778 5.3 72.3778 7.68V14.5H69.7978V8.5C69.7978 6.74 69.3378 5.76 67.9778 5.76C66.5578 5.76 65.7578 6.74 65.7578 8.5V14.5H63.1578V3.9ZM75.9584 1.5H78.5584V3.9H81.3584V5.9H78.5584V11.24C78.5584 12.06 78.9584 12.48 79.7584 12.48H81.3584V14.5H79.3184C77.1384 14.5 75.9584 13.4 75.9584 11.24V5.9H74.2984V3.9H75.9584V1.5ZM87.8573 14.74C84.6973 14.74 82.6173 12.56 82.6173 9.2C82.6173 5.84 84.6973 3.66 87.8573 3.66C91.0173 3.66 93.0973 5.84 93.0973 9.2C93.0973 12.56 91.0173 14.74 87.8573 14.74ZM85.2773 9.2C85.2773 11.38 86.2173 12.64 87.8573 12.64C89.4973 12.64 90.4373 11.38 90.4373 9.2C90.4373 7.02 89.4973 5.76 87.8573 5.76C86.2173 5.76 85.2773 7.02 85.2773 9.2ZM95.1891 3.9H97.6091L97.6691 5.96C98.0691 4.58 98.8491 3.9 100.209 3.9H101.209V5.92H100.189C98.4891 5.92 97.7891 6.76 97.7891 8.46V14.5H95.1891V3.9Z" fill="url(#paint0_linear_1_4)"/>
<defs>
<linearGradient id="paint0_linear_1_4" x1="103" y1="-5.5" x2="4.05932" y2="28.2686" gradientUnits="userSpaceOnUse">
<stop stop-color="#B670FD"/>
<stop offset="1" stop-color="#7076FD"/>
</linearGradient>
</defs>
</svg>
